<svg width="215" height="31" viewBox="0 0 215 31" fill="none" xmlns="http://www.w3.org/2000/svg">
<g id="CoinMarketCap">
<path id="Vector" fill-rule="evenodd" clip-rule="evenodd" d="M32.2956 18.4939C31.6583 18.8147 30.8936 18.9216 30.3837 18.6009C29.619 18.2801 29.2366 17.4247 29.2366 16.3554V12.9338C29.2366 11.3299 28.4719 10.1537 27.1973 9.83296C25.0305 9.29833 23.3736 11.5438 22.7363 12.3992L18.9126 17.6385V11.223C18.9126 9.72604 18.2753 8.87063 17.2557 8.65678C16.4909 8.44293 15.4713 8.54985 14.4516 9.83296L5.91202 21.3809C4.76491 19.5632 4.12763 17.5316 4.12763 15.3931C4.12763 8.44293 10.7554 2.77586 18.9126 2.77586C27.0699 2.77586 33.6976 8.54985 33.6976 15.5C33.8251 16.8901 33.3152 17.9593 32.2956 18.4939ZM37.0115 15.5C37.0115 6.94597 28.8543 0.102722 18.9126 0.102722C8.97099 0.102722 0.813751 7.05289 0.813751 15.5C0.813751 23.9472 8.97099 30.8973 18.9126 30.8973C23.5011 30.8973 27.8346 29.4004 31.2759 26.7272C31.9132 26.1926 32.0407 25.3372 31.4034 24.6956C30.7661 24.161 29.7465 24.0541 29.1092 24.5887C26.4326 26.7272 22.7363 28.0103 19.0401 28.0103C14.7065 28.0103 10.7554 26.4064 7.95133 23.8402L15.7262 13.3615V18.1732C15.7262 20.5255 16.7459 21.274 17.6381 21.4879C18.5303 21.7017 19.9323 21.5948 21.3343 19.5632L25.5404 13.7892C25.6678 13.5754 25.7953 13.4684 25.9227 13.2546V16.1416C25.9227 18.2801 26.9424 19.9909 28.7268 20.8463C30.3837 21.5948 32.423 21.5948 34.08 20.6325C36.1193 19.884 37.1389 17.8524 37.0115 15.5ZM62.2479 10.2607C62.6303 10.4745 63.0127 11.0091 63.0127 11.4368C63.0127 12.1853 62.2479 12.72 61.4832 12.72C61.2283 12.72 61.1008 12.72 60.8459 12.613C59.8263 11.9715 58.6791 11.6507 57.4046 11.6507C54.3456 11.6507 52.3063 13.6823 52.3063 16.2485C52.3063 18.8147 54.3456 20.8463 57.4046 20.8463C58.9341 20.8463 60.2086 20.3117 61.2283 19.5632C61.4832 19.4563 61.8656 19.3493 62.1205 19.3493C62.8852 19.3493 63.5225 19.884 63.5225 20.6325C63.5225 21.0602 63.1401 21.4879 62.7578 21.7017C61.3557 22.771 59.3164 23.4125 57.2771 23.4125C52.6887 23.4125 48.865 20.2048 48.865 16.2485C48.865 12.2922 52.6887 9.08448 57.2771 9.08448C59.3164 8.97756 60.9734 9.40526 62.2479 10.2607ZM70.7875 13.2546C73.974 13.2546 76.6506 15.5 76.6506 18.2801C76.6506 21.0602 73.974 23.4125 70.7875 23.4125C67.4737 23.4125 64.6696 21.0602 64.6696 18.2801C64.6696 15.5 67.4737 13.2546 70.7875 13.2546ZM70.7875 20.8463C72.1896 20.8463 73.3367 19.7771 73.3367 18.2801C73.3367 16.7831 72.1896 15.8208 70.7875 15.8208C69.2581 15.8208 67.9835 16.7831 67.9835 18.2801C67.9835 19.7771 69.2581 20.8463 70.7875 20.8463ZM78.5624 21.8086V14.7515C78.5624 14.0031 79.3271 13.3615 80.2194 13.3615C81.1115 13.3615 81.8763 14.0031 81.8763 14.7515V21.8086C81.8763 22.5571 81.1115 23.1987 80.2194 23.1987C79.3271 23.1987 78.5624 22.5571 78.5624 21.8086ZM78.3075 10.6884C78.3075 9.72604 79.1997 9.08448 80.2194 9.08448C81.239 9.08448 82.1312 9.83296 82.1312 10.6884C82.1312 11.5438 81.239 12.2923 80.2194 12.2923C79.1997 12.2923 78.3075 11.5438 78.3075 10.6884ZM88.1217 17.9593V21.8086C88.1217 22.5571 87.3569 23.1987 86.4647 23.1987C85.5725 23.1987 84.8078 22.5571 84.8078 21.8086V14.4308C84.8078 13.7892 85.4451 13.3615 86.0824 13.3615C86.7196 13.3615 87.3569 13.8961 87.3569 14.4308C88.6315 13.3615 89.9061 13.2546 90.9257 13.2546C94.2396 13.2546 95.6416 15.2862 95.6416 17.6385V21.8086C95.6416 22.5571 94.8769 23.1987 93.9847 23.1987C93.0925 23.1987 92.3278 22.5571 92.3278 21.8086V17.9593C92.3278 16.7831 92.2003 15.7139 90.0335 15.7139C88.759 15.7139 88.1217 16.7831 88.1217 17.9593ZM106.475 19.4563C106.093 19.4563 105.838 19.3493 105.583 19.1355L101.76 15.6069V21.8086C101.76 22.5571 100.995 23.1987 100.103 23.1987C99.2104 23.1987 98.4457 22.5571 98.4457 21.8086V9.51219C98.5731 9.29834 98.8281 9.19141 99.083 9.19141C99.3379 9.19141 99.5928 9.40526 99.7203 9.51219L105.838 15.2862C105.966 15.5 106.221 15.6069 106.348 15.6069C106.475 15.6069 106.73 15.5 106.858 15.2862L112.976 9.51219C113.103 9.40526 113.358 9.19141 113.613 9.19141C113.868 9.19141 114.123 9.29834 114.25 9.51219V21.8086C114.25 22.5571 113.486 23.1987 112.593 23.1987C111.701 23.1987 110.936 22.5571 110.936 21.8086V15.6069L107.113 19.1355C106.985 19.2424 106.73 19.4563 106.475 19.4563ZM122.153 20.8463C123.682 20.8463 124.829 19.7771 124.829 18.2801C124.829 16.7831 123.555 15.8208 122.153 15.8208C120.751 15.8208 119.604 16.7831 119.604 18.2801C119.604 19.6701 120.751 20.8463 122.153 20.8463ZM125.721 22.1294V21.8086C125.084 22.8779 123.045 23.3056 121.77 23.3056C118.711 23.3056 116.417 20.9532 116.417 18.1732C116.417 15.3931 118.711 13.1477 121.898 13.1477C122.408 13.1477 124.319 13.2546 125.721 14.6446V14.3238C125.721 13.6823 126.231 13.2546 126.996 13.2546C127.633 13.2546 128.271 13.7892 128.271 14.3238V22.0225C128.271 22.664 127.633 23.0917 126.996 23.0917C126.231 23.1987 125.721 22.771 125.721 22.1294ZM137.32 15.7139H136.938C134.898 15.8208 134.516 16.7831 134.516 17.9593V21.8086C134.516 22.5571 133.751 23.1987 132.859 23.1987C131.967 23.1987 131.202 22.5571 131.202 21.8086V14.4308C131.202 13.7892 131.839 13.3615 132.477 13.3615C133.114 13.3615 133.751 13.8961 133.751 14.4308C135.026 13.4684 135.918 13.2546 136.938 13.2546H137.32C138.085 13.2546 138.849 13.7892 138.849 14.5377C138.722 15.1792 138.085 15.7139 137.32 15.7139ZM149.938 21.1671C150.066 21.3809 150.193 21.5948 150.193 21.8086C150.193 22.5571 149.428 23.1987 148.536 23.1987C147.899 23.1987 147.517 22.8779 147.134 22.4502L143.31 18.8147V21.8086C143.31 22.5571 142.546 23.1987 141.654 23.1987C140.761 23.1987 139.997 22.5571 139.997 21.8086V10.5814C139.997 9.83296 140.761 9.19141 141.654 9.19141C142.546 9.19141 143.31 9.83296 143.31 10.5814V17.6385L147.134 14.11C147.517 13.7892 148.026 13.3615 148.536 13.3615C149.301 13.3615 150.066 14.0031 150.066 14.7515C150.066 14.9654 150.066 15.1792 149.811 15.3931L146.879 18.1732L149.938 21.1671ZM156.311 15.8208C155.419 15.8208 154.017 16.2485 154.017 17.4247H158.733C158.733 16.1416 157.203 15.8208 156.311 15.8208ZM160.645 19.1355H154.017C154.017 20.7394 155.929 21.0602 156.693 21.0602C157.331 21.0602 158.223 20.9532 158.86 20.7394C159.115 20.6325 159.37 20.5255 159.752 20.5255C160.517 20.5255 161.027 21.0602 161.027 21.7017C161.027 22.1294 160.645 22.4502 160.262 22.664C159.243 23.3056 157.968 23.4125 156.693 23.4125C153.38 23.4125 150.576 21.9156 150.576 18.387C150.576 15.6069 152.232 13.2546 156.184 13.2546C159.37 13.2546 161.792 14.9654 161.792 18.0662C161.919 18.6009 161.409 19.1355 160.645 19.1355ZM169.821 23.3056H168.929C166.38 23.3056 164.978 22.3433 164.978 19.1355V15.7139H164.086C163.321 15.7139 162.556 15.0723 162.556 14.4308C162.556 13.6823 163.194 13.1477 164.086 13.1477H164.978V10.5814C164.978 9.83296 165.743 9.19141 166.635 9.19141C167.527 9.19141 168.292 9.83296 168.292 10.5814V13.1477H169.694C170.459 13.1477 171.224 13.6823 171.224 14.4308C171.224 15.0723 170.586 15.7139 169.694 15.7139H168.292V18.6009C168.292 20.5255 168.419 20.8463 169.439 20.8463H169.949C170.714 20.8463 171.351 21.3809 171.351 22.1294C171.224 22.771 170.586 23.3056 169.821 23.3056ZM185.626 10.2607C186.009 10.4745 186.391 11.0091 186.391 11.4368C186.391 12.1853 185.626 12.72 184.861 12.72C184.606 12.72 184.479 12.72 184.224 12.613C183.204 11.9715 182.057 11.6507 180.783 11.6507C177.724 11.6507 175.685 13.6823 175.685 16.2485C175.685 18.8147 177.724 20.8463 180.783 20.8463C182.312 20.8463 183.587 20.3117 184.606 19.5632C184.861 19.4563 185.244 19.3493 185.499 19.3493C186.263 19.3493 186.901 19.884 186.901 20.6325C186.901 21.0602 186.518 21.4879 186.136 21.7017C184.734 22.771 182.695 23.4125 180.655 23.4125C176.067 23.4125 172.243 20.2048 172.243 16.2485C172.243 12.2922 176.067 9.08448 180.655 9.08448C182.695 8.97756 184.352 9.40526 185.626 10.2607ZM194.038 20.8463C195.568 20.8463 196.715 19.7771 196.715 18.2801C196.715 16.7831 195.44 15.8208 194.038 15.8208C192.636 15.8208 191.489 16.7831 191.489 18.2801C191.362 19.6701 192.509 20.8463 194.038 20.8463ZM197.48 22.1294V21.8086C196.842 22.8779 194.803 23.3056 193.528 23.3056C190.469 23.3056 188.175 20.9532 188.175 18.1732C188.175 15.3931 190.469 13.1477 193.656 13.1477C194.166 13.1477 196.078 13.2546 197.48 14.6446V14.3238C197.48 13.6823 197.989 13.2546 198.754 13.2546C199.391 13.2546 200.029 13.7892 200.029 14.3238V22.0225C200.029 22.664 199.391 23.0917 198.754 23.0917C197.989 23.1987 197.48 22.771 197.48 22.1294ZM209.078 20.8463C210.48 20.8463 211.627 19.6701 211.627 18.2801C211.627 16.7831 210.48 15.8208 209.078 15.8208C207.676 15.8208 206.402 16.7831 206.402 18.2801C206.274 19.7771 207.549 20.8463 209.078 20.8463ZM206.274 22.5571V26.0857C206.274 26.8341 205.509 27.4757 204.617 27.4757C203.725 27.4757 202.96 26.8341 202.96 26.0857V14.4308C202.96 13.7892 203.598 13.3615 204.235 13.3615C204.872 13.3615 205.509 13.8961 205.509 14.5377C206.784 13.4684 208.186 13.2546 209.333 13.2546C212.52 13.2546 214.814 15.5 214.814 18.2801C214.814 21.0602 212.52 23.4125 209.461 23.4125C208.568 23.3056 207.166 23.0917 206.274 22.5571Z" fill="black"/>
</g>
</svg>
